<svg xmlns="http://www.w3.org/2000/svg" xmlns:xlink="http://www.w3.org/1999/xlink" viewBox="0 0 908 763.55"><defs><style>.cls-1{fill:url(#linear-gradient);}</style><linearGradient id="linear-gradient" x1="454" x2="454" y2="763.55" gradientUnits="userSpaceOnUse"><stop offset="0" stop-color="#4e4199"/><stop offset="1" stop-color="#ad6fae"/></linearGradient></defs><title>logo</title><g id="Layer_2" data-name="Layer 2"><g id="Layer_1-2" data-name="Layer 1"><path class="cls-1" d="M906,.94,904.92,0H849.51l-.81.94H318.85c-96.69,0-175.33,78.64-175.33,175.33v.25A187.5,187.5,0,0,0,0,339.92V763.55H641.17c73.79-14.09,129.88-79.3,129.88-156.92V589.3A187.52,187.52,0,0,0,908,433.14V.94ZM318.85,85.36h458l-73.43,86.3H228.05A91,91,0,0,1,318.85,85.36ZM686.63,606.63a75.52,75.52,0,0,1-74.57,75.31H131.81l73.43-86.3H686.63Zm0-95.41H166.22L83.93,607.91,83.48,359a103.1,103.1,0,0,1,60.43-93.88C150,355.7,225.59,428,317.63,428.64l294.22,2A75.53,75.53,0,0,1,686.63,506Zm108.53-30.17a103,103,0,0,1-24.26,18.07c-3.6-84.31-73.3-152.28-158.47-152.88l-294.22-2c-48.85-.31-88.77-39.62-90.23-88.13H742.46l82.26-96.69.47,248.89A102.12,102.12,0,0,1,795.16,481.05Z"/></g></g></svg>